<svg xmlns="http://www.w3.org/2000/svg" viewBox="0 0 800 200">
  <defs>
    <linearGradient id="bg" x1="0%" y1="0%" x2="100%" y2="100%">
      <stop offset="0%" style="stop-color:#1a1a2e"/>
      <stop offset="100%" style="stop-color:#16213e"/>
    </linearGradient>
    <linearGradient id="accent" x1="0%" y1="0%" x2="100%" y2="0%">
      <stop offset="0%" style="stop-color:#478cbf"/>
      <stop offset="100%" style="stop-color:#45b7d1"/>
    </linearGradient>
  </defs>
  <rect width="800" height="200" rx="12" fill="url(#bg)"/>
  <!-- Godot robot icon (simplified) -->
  <g transform="translate(60,30) scale(0.13)">
    <path d="M535 337c8-74-27-139-81-176-54-37-124-37-178 0-54 37-89 102-81 176l-76 38c-14 7-19 24-12 38l38 76c7 14 24 19 38 12l42-21c44 33 106 33 150 0l42 21c14 7 31 2 38-12l38-76c7-14 2-31-12-38l-76-38z" fill="#478cbf"/>
    <circle cx="348" cy="302" r="42" fill="white"/>
    <circle cx="500" cy="302" r="42" fill="white"/>
    <circle cx="348" cy="310" r="22" fill="#333"/>
    <circle cx="500" cy="310" r="22" fill="#333"/>
    <rect x="404" y="288" width="20" height="44" rx="10" fill="white"/>
    <path d="M320 412c0 0 28 32 104 32s104-32 104-32" stroke="white" stroke-width="14" fill="none" stroke-linecap="round"/>
  </g>
  <!-- Arrow -->
  <g transform="translate(190, 85)">
    <path d="M0 15 L30 15 L30 5 L50 20 L30 35 L30 25 L0 25 Z" fill="url(#accent)" opacity="0.8"/>
  </g>
  <!-- Mini game icons -->
  <g transform="translate(252, 68)">
    <!-- WeChat icon (simplified) -->
    <rect x="0" y="0" width="56" height="56" rx="12" fill="#07c160" opacity="0.9"/>
    <g transform="translate(10,12) scale(0.65)">
      <ellipse cx="22" cy="26" rx="18" ry="16" fill="white"/>
      <ellipse cx="38" cy="18" rx="14" ry="12" fill="white"/>
      <circle cx="16" cy="24" r="3" fill="#07c160"/>
      <circle cx="28" cy="24" r="3" fill="#07c160"/>
    </g>
    <!-- Douyin icon (simplified) -->
    <rect x="66" y="0" width="56" height="56" rx="12" fill="#111" opacity="0.9"/>
    <g transform="translate(82,10)">
      <rect x="2" y="0" width="8" height="32" rx="4" fill="#25f4ee" transform="rotate(5,6,16)"/>
      <rect x="6" y="0" width="8" height="32" rx="4" fill="#fe2c55" transform="rotate(-5,10,16)"/>
      <rect x="4" y="0" width="8" height="32" rx="4" fill="white" transform="rotate(0,8,16)"/>
      <circle cx="8" cy="8" r="6" fill="none" stroke="white" stroke-width="3"/>
    </g>
  </g>
  <!-- Title text -->
  <text x="395" y="95" font-family="system-ui,-apple-system,sans-serif" font-size="38" font-weight="700" fill="white" letter-spacing="-0.5">Godot Mini Game</text>
  <text x="395" y="130" font-family="system-ui,-apple-system,sans-serif" font-size="16" fill="#8899aa" letter-spacing="0.5">Export Godot games to WeChat &amp; Douyin mini-games</text>
  <!-- Badges row -->
  <g transform="translate(395, 148)">
    <rect x="0" y="0" width="72" height="22" rx="4" fill="#478cbf" opacity="0.8"/>
    <text x="36" y="15" font-family="monospace" font-size="11" fill="white" text-anchor="middle">Godot 4.x</text>
    <rect x="80" y="0" width="62" height="22" rx="4" fill="#07c160" opacity="0.8"/>
    <text x="111" y="15" font-family="monospace" font-size="11" fill="white" text-anchor="middle">WeChat</text>
    <rect x="150" y="0" width="58" height="22" rx="4" fill="#fe2c55" opacity="0.8"/>
    <text x="179" y="15" font-family="monospace" font-size="11" fill="white" text-anchor="middle">Douyin</text>
    <rect x="216" y="0" width="42" height="22" rx="4" fill="#f0c040" opacity="0.8"/>
    <text x="237" y="15" font-family="monospace" font-size="11" fill="#333" text-anchor="middle">MIT</text>
  </g>
</svg>
