<svg xmlns="http://www.w3.org/2000/svg" width="720" height="180" viewBox="0 0 720 180" role="img" aria-labelledby="hero-light-title hero-light-desc" preserveAspectRatio="xMidYMid meet">
  <title id="hero-light-title">Godot Mini Game export flow</title>
  <desc id="hero-light-desc">A Godot project flows through the export plugin to WeChat and Douyin Mini Games.</desc>
  <defs>
    <linearGradient id="hero-light-bg" x1="0" y1="0" x2="1" y2="1">
      <stop offset="0" stop-color="#ffffff"/>
      <stop offset="1" stop-color="#f1f6fb"/>
    </linearGradient>
    <linearGradient id="hero-light-flow" x1="0" y1="0" x2="1" y2="0">
      <stop offset="0" stop-color="#478cbf"/>
      <stop offset="0.55" stop-color="#2f81f7"/>
      <stop offset="1" stop-color="#1a7f37"/>
    </linearGradient>
    <radialGradient id="hero-light-blue-glow">
      <stop offset="0" stop-color="#478cbf" stop-opacity="0.18"/>
      <stop offset="1" stop-color="#478cbf" stop-opacity="0"/>
    </radialGradient>
    <radialGradient id="hero-light-green-glow">
      <stop offset="0" stop-color="#07c160" stop-opacity="0.12"/>
      <stop offset="1" stop-color="#07c160" stop-opacity="0"/>
    </radialGradient>
    <pattern id="hero-light-grid" width="24" height="24" patternUnits="userSpaceOnUse">
      <path d="M24 0H0V24" fill="none" stroke="#d8dee4" stroke-width="0.7" stroke-opacity="0.7"/>
    </pattern>
    <filter id="hero-light-shadow" x="-30%" y="-30%" width="160%" height="160%">
      <feDropShadow dx="0" dy="7" stdDeviation="9" flood-color="#1f2328" flood-opacity="0.12"/>
    </filter>
    <marker id="hero-light-arrow" viewBox="0 0 10 10" refX="8" refY="5" markerWidth="7" markerHeight="7" orient="auto-start-reverse">
      <path d="M0 0L10 5L0 10Z" fill="#6e7781"/>
    </marker>
    <clipPath id="hero-light-clip">
      <rect x="1" y="1" width="718" height="178" rx="18"/>
    </clipPath>
  </defs>

  <g clip-path="url(#hero-light-clip)">
    <rect width="720" height="180" fill="url(#hero-light-bg)"/>
    <rect width="720" height="180" fill="url(#hero-light-grid)" opacity="0.65"/>
    <ellipse cx="150" cy="88" rx="170" ry="130" fill="url(#hero-light-blue-glow)"/>
    <ellipse cx="590" cy="88" rx="170" ry="130" fill="url(#hero-light-green-glow)"/>
    <path d="M0 178H720" stroke="url(#hero-light-flow)" stroke-width="3"/>
  </g>
  <rect x="0.5" y="0.5" width="719" height="179" rx="18" fill="none" stroke="#d0d7de"/>

  <g filter="url(#hero-light-shadow)">
    <circle cx="126" cy="90" r="55" fill="#f6f8fa" stroke="#8cbbd9" stroke-width="1.5"/>
    <circle cx="126" cy="90" r="43" fill="#478cbf" fill-opacity="0.12"/>
    <g transform="translate(86,50) scale(2.5)">
      <path d="M28.166 21.029v1.652a.374.374 0 01-.26.357l-2.6.841a.367.367 0 01-.335-.054.374.374 0 01-.155-.3v-1.8l-2.438.464v1.831a.375.375 0 01-.325.371l-3.525.483h-.051a.374.374 0 01-.377-.374v-1.943l-1.819.008h-.267l-1.819-.008V24.5a.375.375 0 01-.375.376h-.052l-3.525-.483a.375.375 0 01-.324-.371v-1.838l-2.439-.464v1.8a.374.374 0 01-.154.3.37.37 0 01-.336.054l-2.6-.841a.374.374 0 01-.259-.357v-1.647l-1.608-.541a4.558 4.558 0 00-.124 1.04c0 4.317 6.082 7.65 13.6 7.674h.019c7.517-.024 13.6-3.356 13.6-7.674a4.54 4.54 0 00-.1-.95z" fill="#478cbf"/>
      <path d="M3.711 13.373V20.1l.907.306a.374.374 0 01.256.355v1.65l1.855.6v-1.744a.376.376 0 01.445-.369l3.189.609a.374.374 0 01.305.368v1.818l2.775.379v-1.89a.374.374 0 01.376-.375l2.327.009 2.326-.009a.374.374 0 01.377.375v1.89l2.775-.379v-1.819a.373.373 0 01.3-.368l3.189-.609a.377.377 0 01.446.369v1.741l1.855-.6V20.76a.374.374 0 01.255-.355l.618-.208v-6.824h.017A26.792 26.792 0 0030 10.931a19.02 19.02 0 00-2.509-3.288A24.507 24.507 0 0025 9.091a13.01 13.01 0 00-1.279-1.052 15.365 15.365 0 00-1.375-.894 28.353 28.353 0 00.232-3.071A15.968 15.968 0 0018.847 2.8a26.44 26.44 0 00-1.385 2.7 9.46 9.46 0 00-1.453-.116h-.018a9.457 9.457 0 00-1.454.116 26.275 26.275 0 00-1.385-2.7 15.961 15.961 0 00-3.73 1.275 28.142 28.142 0 00.232 3.071 15.312 15.312 0 00-1.376.894A13.06 13.06 0 007 9.091a24.553 24.553 0 00-2.49-1.448A19.02 19.02 0 002 10.931a26.792 26.792 0 001.694 2.443z" fill="#478cbf"/>
      <circle cx="9.722" cy="16.6" r="2.74" fill="#fff"/>
      <circle cx="9.981" cy="16.764" r="1.819" fill="#26323d"/>
      <path d="M16.166 19.59a.844.844 0 01-.882-.8v-2.523a.886.886 0 011.764 0v2.522a.845.845 0 01-.883.8" fill="#fff"/>
      <circle cx="22.611" cy="16.6" r="2.74" fill="#fff"/>
      <circle cx="22.348" cy="16.764" r="1.818" fill="#26323d"/>
    </g>
  </g>

  <path d="M194 90H279" fill="none" stroke="#6e7781" stroke-width="2" marker-end="url(#hero-light-arrow)"/>

  <g filter="url(#hero-light-shadow)">
    <rect x="293" y="35" width="142" height="110" rx="22" fill="#ffffff" stroke="#478cbf" stroke-width="1.5"/>
    <rect x="307" y="49" width="114" height="82" rx="15" fill="#478cbf" fill-opacity="0.08" stroke="#478cbf" stroke-opacity="0.35"/>
    <path d="M364 104V67M347 84l17-17 17 17" fill="none" stroke="#2f81f7" stroke-width="6" stroke-linecap="round" stroke-linejoin="round"/>
    <path d="M337 112v7h54v-7" fill="none" stroke="#2f81f7" stroke-width="5" stroke-linecap="round" stroke-linejoin="round"/>
    <circle cx="318" cy="60" r="3" fill="#1a7f37"/>
  </g>

  <path d="M436 90H474C492 90 492 59 510 59H523" fill="none" stroke="#6e7781" stroke-width="2" marker-end="url(#hero-light-arrow)"/>
  <path d="M436 90H474C492 90 492 121 510 121H523" fill="none" stroke="#6e7781" stroke-width="2" marker-end="url(#hero-light-arrow)"/>

  <g filter="url(#hero-light-shadow)">
    <rect x="536" y="25" width="112" height="62" rx="18" fill="#f0fff6" stroke="#74c991"/>
    <circle cx="592" cy="56" r="22" fill="#07c160"/>
    <path d="M580 48c-7 0-13 5-13 11 0 3 2 6 5 8l-1 5 6-3h3c7 0 13-5 13-11s-6-10-13-10z" fill="#fff"/>
    <path d="M597 51c7 0 12 4 12 10 0 3-1 5-4 7l1 4-5-3h-4c-6 0-11-4-11-9s5-9 11-9z" fill="#dffbea"/>
    <circle cx="577" cy="57" r="1.5" fill="#07c160"/><circle cx="584" cy="57" r="1.5" fill="#07c160"/>
  </g>

  <g filter="url(#hero-light-shadow)">
    <rect x="536" y="94" width="112" height="62" rx="18" fill="#ffffff" stroke="#d0d7de"/>
    <circle cx="592" cy="125" r="22" fill="#111318"/>
    <path d="M596 111v20c0 7-5 11-11 11-5 0-9-3-9-8s4-9 10-9c2 0 3 0 5 1v-23h7c1 6 5 10 12 11v7c-6-1-10-3-14-6" fill="none" stroke="#25f4ee" stroke-width="5" stroke-linecap="round" stroke-linejoin="round"/>
    <path d="M599 109v20c0 7-5 11-11 11" fill="none" stroke="#fe2c55" stroke-width="3" stroke-linecap="round"/>
  </g>
</svg>
